<svg width="512" height="512" viewBox="0 0 512 512" fill="none" xmlns="http://www.w3.org/2000/svg">
<g id="owl">
<g id="feet_group">
<g id="right_foot">
<path id="right_paw_3" d="M186.97 399.355C193.236 396.16 200.957 395.223 206.915 399.64C210.842 397.028 218.525 395.775 220.846 400.958C222.418 408.268 222.809 416.095 221.17 423.44C218.111 431.483 210.306 440.445 200.567 433.913C197.97 432.173 196.16 427.23 195.923 424.055C191.591 428.368 185.716 432.903 179.065 431.528C172.457 430.16 171.626 422.205 173.061 416.715C175.151 408.723 180.057 403.593 186.97 399.355Z" fill="#FD9C82"/>
<path id="right_paw_2" d="M186.97 399.355C193.236 396.16 200.957 395.223 206.915 399.64C199.826 406.58 196.074 411.868 195.948 422.398C195.944 422.95 195.936 423.503 195.923 424.055C191.591 428.368 185.716 432.903 179.065 431.528C172.457 430.16 171.626 422.205 173.061 416.715C175.151 408.723 180.057 403.593 186.97 399.355Z" fill="#F97D63"/>
<path id="right_paw_1" d="M220.846 400.957C222.104 400.662 223.889 399.542 225.135 398.967C231.325 396.117 239.822 399.952 242.551 406.087C243.896 409.715 244.707 412.912 244.332 416.83C243.793 422.472 240.92 428.705 235.199 430.677C232.632 431.56 229.815 431.347 227.41 430.087C224.588 428.63 222.71 426.127 221.17 423.44C222.809 416.095 222.418 408.267 220.846 400.957Z" fill="#F97D63"/>
</g>
<g id="left_foot">
<path id="left_paw_3" d="M314.171 399.851C321.043 395.658 326.341 396.481 333.308 399.788C340.041 404.671 345.083 409.998 346.491 418.493C348.738 432.068 337.138 435.501 327.816 427.746C326.561 426.701 325.348 425.596 324.143 424.473C323.816 425.866 323.506 427.468 323.001 428.818C320.891 434.463 314.813 438.033 309.023 435.318C303.473 432.716 301.846 428.626 299.756 423.268C298.566 416.763 299.151 407.956 300.736 401.633C302.306 396.316 310.393 397.268 314.171 399.851Z" fill="#FD9C82"/>
<path id="left_paw_2" d="M314.171 399.851C321.043 395.658 326.341 396.481 333.308 399.788C340.041 404.671 345.083 409.998 346.491 418.493C348.738 432.068 337.138 435.501 327.816 427.746C326.561 426.701 325.348 425.596 324.143 424.473C324.603 415.298 321.183 405.913 314.171 399.851Z" fill="#F97D63"/>
<path id="left_paw_1" d="M279.871 406.536C281.506 402.918 285.831 399.421 289.723 398.646C294.558 397.681 296.971 399.116 300.736 401.633C299.151 407.956 298.566 416.763 299.756 423.268C299.071 425.651 296.641 428.636 294.481 429.843C288.638 433.093 282.623 429.941 279.886 424.321C276.921 418.238 277.871 412.661 279.871 406.536Z" fill="#F97D63"/>
</g>
</g>
<g id="body_group">
<path id="body" d="M137.5 200L376.5 201C376.5 201 378.772 201.039 380 201.5C384 203 383 202.5 387.5 210.5C392.5 220 393.375 224.5 395.5 233C400.5 253 398.965 271.122 399.5 291C397 320.5 388.808 344.293 369.455 365.496C348.848 387.677 322.405 402.99 293.463 409.499C283.76 411.568 273.899 412.727 264.001 412.962C251.819 413.172 238.039 412.553 226.088 410.015C174.324 399.019 127.521 361.859 124.5 303C123.375 281.09 124.5 263.5 126 243C127.331 240.092 129.01 221.823 130.5 219C132.5 209 134.5 204 137.5 200Z" fill="#747373"/>
<path id="belly" d="M268.35 230C288.005 231.219 303.875 234.786 317.848 250.41C335.18 269.792 340.593 300.757 339.208 325.994C337.965 348.647 331.468 376.884 313.84 392.512C298.728 405.907 278.338 404.424 259.538 404.454C251.09 404.469 241.173 404.597 232.776 404.024C220.791 402.959 208.726 396.302 201.237 386.969C183.728 365.154 179.263 332.394 181.556 305.377C184.995 264.857 205.811 230.736 250.58 230.16C254.056 230 256.556 230 259.538 230.16C262.52 230.321 265.556 230.16 268.35 230Z" fill="#F5EBD9"/>
</g>
<g id="left_wing_group">
<path id="left_wing" d="M381.975 188.531C353.587 195.74 384.582 356.402 384.582 356.402C385.404 358.145 385.985 360.049 386.636 361.899C389.23 369.276 391.872 376.712 395.163 383.646C397.396 377.433 399.395 371.716 401.28 365.327L401.522 364.311C404.597 353.802 408.942 336.82 410.275 325.658L410.363 324.993C412.493 314.945 415.051 293.202 414.835 282.805L414.921 281.987C416.952 249.421 410.363 181.321 381.975 188.531Z" fill="#737373"/>
<path id="left_wing_2_and_3_and_4" d="M372.738 239.974L372.46 239.364C372.9 235.831 379.185 229.203 382.675 229.288C385.693 232.021 388.16 233.696 391.09 236.837C405.518 252.608 413.898 272.978 414.743 294.335C414.903 297.57 414.853 300.835 414.825 304.075C414.803 305.208 414.833 306.533 414.638 307.63C414.485 316.35 412.365 329.768 410.273 338.345L410.223 338.59C408.815 347.918 405.748 356.9 402.925 365.865C402.578 366.968 402.093 368.108 401.785 369.2L401.57 369.603C400.705 373.225 397.29 380.923 395.653 384.37C393.665 380.543 391.77 376.67 389.968 372.753C388.43 369.37 387.155 366.068 385.473 362.743C372.985 329.513 359.99 284.483 368.998 249.12C369.493 247.333 371.078 241.257 372.018 240.09L372.585 240.151L372.738 239.974Z" fill="#9D8E83"/>
<path id="left_wing_separator_34" d="M401.57 369.603C400.843 368.45 398.598 361.425 397.97 359.588C396.29 354.743 394.575 349.91 392.82 345.09L376.83 301.888C374.64 296.17 372.545 290.42 370.543 284.638C369.908 282.813 368.195 277.965 367.983 276.265L368.16 276.238C372.738 290.415 378.27 304.558 383.568 318.513C390.015 335.27 396.09 352.17 401.785 369.2L401.57 369.603Z" fill="#352E2B"/>
<path id="left_wing_1_and_2" d="M372.738 239.974L372.46 239.364C372.9 235.831 379.185 229.203 382.675 229.288C385.693 232.021 388.16 233.696 391.09 236.837C405.518 252.608 413.898 272.978 414.743 294.335C414.903 297.57 414.853 300.835 414.825 304.075C414.803 305.208 414.833 306.533 414.638 307.63C414.485 316.35 412.365 329.768 410.273 338.345C409.473 336.993 407.98 333.798 407.198 332.273C404.15 326.278 401.155 320.258 398.215 314.21C388.88 295.268 379.303 276.38 372.09 256.498C371.21 254.075 370.628 251.535 369.73 249.095L369.513 249.01L368.998 249.12C369.493 247.333 371.078 241.257 372.018 240.09L372.585 240.151L372.738 239.974Z" fill="#9D8E83"/>
<path id="left_wing_separator_23" d="M369.513 249.01L369.73 249.095C370.628 251.535 371.21 254.075 372.09 256.498C379.303 276.38 388.88 295.268 398.215 314.21C401.155 320.258 404.15 326.278 407.198 332.273C407.98 333.798 409.473 336.993 410.273 338.345L410.223 338.59C408.448 336.395 402.235 323.67 400.665 320.465C391.843 302.435 382.353 284.315 374.953 265.668C373.213 261.278 370.363 253.593 369.513 249.01Z" fill="#352E2B"/>
<path id="left_wing_1" d="M372.738 239.974L372.46 239.364C372.9 235.831 379.185 229.203 382.675 229.288C385.693 232.021 388.16 233.696 391.09 236.837C405.518 252.608 413.898 272.978 414.743 294.335C414.903 297.57 414.853 300.835 414.825 304.075C413.235 302.01 410.945 298.305 409.463 296.058L399.135 280.278L372.738 239.974Z" fill="#9D8E83"/>
<path id="left_wing_separator_12" d="M372.738 239.974L399.135 280.278L409.463 296.058C410.945 298.305 413.235 302.01 414.825 304.075C414.803 305.208 414.833 306.533 414.638 307.63C414.573 306.59 414.655 305.625 414.713 304.585C402.593 287.258 391.368 268.918 379.588 251.323C377.225 247.795 374.673 243.829 372.585 240.151L372.738 239.974Z" fill="#352E2B"/>
</g>
<g id="right_wing_group">
<path id="right_wing" d="M140.289 189.514C168.678 196.724 137.682 357.385 137.682 357.385C136.86 359.129 136.279 361.033 135.628 362.883C133.034 370.259 130.393 377.695 127.101 384.629C124.868 378.416 122.869 372.699 120.984 366.311L120.742 365.295C117.667 354.785 113.322 337.803 111.989 326.642L111.901 325.977C109.771 315.928 107.214 294.185 107.429 283.789L107.343 282.97C105.312 250.404 111.901 182.305 140.289 189.514Z" fill="#737373"/>
<path id="right_wing_3_and_4" d="M107.285 304.162C118.025 291.655 125.534 278.78 134.742 265.21C140.535 256.67 146.192 247.666 151.483 238.792C152.848 241.603 154.717 245.729 153.786 248.707L154.038 249.002L154.4 248.131C155.083 248.442 155.48 251.497 155.638 252.35C161.116 281.805 154.363 312.997 145.546 341.117C143.398 347.967 140.507 356.6 137.516 362.83C136.694 364.22 136.114 365.737 135.464 367.212C132.872 373.092 130.232 379.02 126.943 384.547C124.711 379.595 122.714 375.037 120.83 369.945L120.589 369.135C117.516 360.757 113.174 347.22 111.842 338.322L111.754 337.792C109.626 329.782 107.07 312.45 107.285 304.162Z" fill="#9D8E83"/>
<path id="right_wing_separator_34" d="M120.589 369.135C127.94 348.267 135.734 327.557 143.963 307.02C147.012 299.415 149.92 291.755 152.688 284.042C153.802 280.95 154.894 277.957 155.661 274.76C155.851 273.97 156.268 273.422 156.457 272.46L156.594 272.437C156.511 274.01 155.667 275.805 155.179 277.43C152.433 286.575 148.805 295.845 145.369 304.762L130.795 342.732C128.51 348.812 126.261 354.905 124.048 361.01C123.229 363.275 121.697 368.067 120.83 369.945L120.589 369.135Z" fill="#352E2B"/>
<path id="right_wing_2" d="M107.285 304.162C118.025 291.655 125.534 278.78 134.742 265.21C140.535 256.67 146.192 247.666 151.483 238.792C152.848 241.603 154.717 245.729 153.786 248.707C151.799 256.14 147.833 265.412 144.695 272.447C138.93 285.18 132.815 297.755 126.36 310.152C123.186 316.41 119.935 322.627 116.605 328.802C115.24 331.367 113.215 335.462 111.754 337.792C109.626 329.782 107.07 312.45 107.285 304.162Z" fill="#9D8E83"/>
<path id="right_wing_separator_23" d="M153.786 248.707L154.038 249.002C153.54 252.077 151.341 257.952 150.195 260.965C145.829 272.452 140.403 283.64 134.922 294.632C129.79 304.912 124.525 315.125 119.129 325.267C117.876 327.597 113.232 336.557 111.842 338.322L111.754 337.792C113.215 335.462 115.24 331.367 116.605 328.802C119.935 322.627 123.187 316.41 126.36 310.152C132.816 297.755 138.93 285.18 144.695 272.447C147.833 265.412 151.799 256.14 153.786 248.707Z" fill="#352E2B"/>
<path id="right_wing_1" d="M140.872 228.515C142.28 228.604 143.086 229.206 144.323 229.806C147.755 231.47 149.11 235.658 151.491 238.169L137.793 258.125C130.039 269.637 122.5 281.297 114.468 292.625C111.939 296.19 109.829 299.93 107.2 303.51C105.148 277.257 118.293 243.139 140.872 228.515Z" fill="#9D8E83"/>
<path id="right_wing_separator_12" d="M107.246 303.692L120.374 285.176L133.874 264.676L147.874 243.176C152.611 236.205 150.575 240.596 150.874 240.176C138.268 257.814 129.246 274.692 115.246 293.692C107.877 303.692 109.246 301.692 107.246 303.692Z" fill="#352E2B"/>
</g>
<g id="head_group">
<path id="head" d="M140.094 70.3229C139.957 69.0801 140.298 64.8529 140.338 63.2206C149.702 70.3421 172.531 79.6796 184.505 81.1864C186.726 81.4659 196.731 79.7129 199.68 79.2836C206.621 78.2091 213.607 77.4546 220.617 77.0224C231.627 76.4314 244.743 76.7524 255.874 76.7524L280.939 76.7609C287.111 76.7674 293.536 76.6424 299.656 77.0821C309.723 77.8054 319.668 79.1066 329.606 80.8541C330.783 81.0611 333.393 81.3581 334.531 81.1896C347.538 79.2626 368.205 70.7161 378.638 62.9999C378.863 72.0149 377.265 80.3696 376.11 89.3379C373.903 106.497 375.595 117.351 379.205 133.833C381.098 139.94 382.85 145.669 384.09 151.954C387.075 152.019 390.473 152.025 393.423 151.809C397.135 151.537 396.295 163.282 394.463 163.677C392.288 164.145 388.44 163.56 385.733 164.028L385.878 165.206C386.695 169.576 386.743 174.946 386.855 179.386C387.27 195.963 384.188 212.436 374.813 226.407C374.669 226.621 374.45 226.948 374.218 227.279H145.012C134.99 212.555 131.632 196.495 132.05 178.791C132.161 174.111 132.377 168.483 133.09 163.874C131.109 163.655 126.83 164.098 125.332 163.501C123.758 162.874 124.231 153.893 125.149 152.296C127.05 151.334 132.623 152.273 135.27 151.78C135.381 148.895 138.308 138.899 139.165 135.406C143.187 119.463 144.757 106.85 142.729 90.3301C141.914 83.6966 140.824 76.9511 140.094 70.3229Z" fill="#737373"/>
<path id="eyeglass_frame" d="M140.034 63.2233C149.398 70.3448 172.227 79.6823 184.201 81.1891C186.422 81.4686 196.428 79.7156 199.376 79.2863C206.317 78.2118 213.303 77.4573 220.314 77.0251C231.323 76.4341 244.44 76.7551 255.57 76.7551L280.635 76.7636C286.808 76.7701 293.233 76.6451 299.353 77.0848C309.42 77.8081 319.365 79.1093 329.303 80.8568C330.48 81.0638 333.09 81.3608 334.228 81.1923C347.235 79.2653 367.903 70.7188 378.335 63.0026C378.56 72.0176 376.963 80.3723 375.808 89.3406C373.6 106.499 375.293 117.353 378.903 133.836C380.795 139.942 382.548 145.672 383.788 151.957C386.773 152.021 390.17 152.028 393.12 151.812C396.833 151.54 395.993 163.285 394.16 163.68C391.985 164.148 388.138 163.563 385.43 164.031L385.575 165.209C384.963 170.356 384.593 176.204 383.598 181.17C373.053 233.882 308.84 249.082 277.948 203.379C276.753 203.667 276.555 203.802 275.435 203.462C274.573 208.494 270.713 218.742 268.545 223.535C267.703 225.364 261.633 239.605 259.34 238.823C256.768 237.946 251.913 226.491 250.775 223.696C248.009 217.789 245.549 209.865 243.719 203.622C243.024 203.413 242.327 203.213 241.627 203.021C238.999 206.822 234.739 211.676 231.418 214.794C220.68 224.849 206.379 230.211 191.678 229.696C156.546 228.37 132.775 197.187 134.031 163.449C133.365 164.044 133.755 163.877 132.786 163.877C130.805 163.658 126.526 164.1 125.027 163.504C123.454 162.877 123.927 153.896 124.845 152.299C126.746 151.337 132.318 152.276 134.965 151.783C135.076 148.898 138.003 138.901 138.861 135.408C142.883 119.466 144.453 106.853 142.425 90.3328C141.61 83.6993 140.52 76.9538 139.789 70.3256C139.652 69.0828 139.994 64.8556 140.034 63.2233Z" fill="#9D8E83"/>
<path id="face" d="M140.471 64.2206C149.796 71.3421 172.53 80.6796 184.454 82.1864C186.666 82.4659 196.629 80.7129 199.566 80.2836C206.477 79.2091 213.435 78.4546 220.416 78.0224C231.379 77.4314 244.441 77.7524 255.525 77.7524L280.486 77.7609C286.632 77.7674 293.03 77.6424 299.125 78.0821C309.15 78.8054 319.054 80.1066 328.95 81.8541C330.122 82.0611 332.722 82.3581 333.854 82.1896C346.808 80.2626 367.389 71.7161 377.778 63.9999C378.002 73.0149 376.411 81.3696 375.261 90.3379C373.062 107.497 374.748 118.351 378.343 134.833C376.777 134.015 371.848 124.903 370 122.358C355.865 103.194 332.022 93.8881 308.71 98.4359C293.489 101.369 280.067 110.971 271.416 123.765C264.366 134.35 260.549 146.773 260.437 159.507L258.951 159.363C258.667 145.017 254.806 131.617 245.991 120.138C236.406 107.507 222.176 99.2651 206.49 97.2589C182.772 94.3779 161.004 105.171 147.184 124.356C145.201 127.108 141.314 134.942 139.303 136.406C143.308 120.463 144.872 107.85 142.852 91.3301C142.041 84.6966 140.955 77.9511 140.228 71.3229C140.091 70.0801 140.431 65.8529 140.471 64.2206Z" fill="#737373"/>
<path id="beak" d="M250.835 186.247L268.62 186.255C270.498 192.582 272.158 197.62 275.435 203.462C274.573 208.494 270.713 218.742 268.545 223.535C267.703 225.364 261.633 239.605 259.34 238.823C256.768 237.946 251.913 226.491 250.775 223.696C248.009 217.789 245.549 209.865 243.719 203.622C246.836 198.164 249.228 192.323 250.835 186.247Z" fill="#FDA207"/>
<path id="middle_temple" d="M248.27 186.559C247.186 185.96 245.864 185.432 245.556 184.153C244.943 181.608 245.242 178.259 245.154 175.799C244.582 159.863 248.697 162.173 261.53 162.034C271.358 161.928 273.44 161.976 273.355 173.748C273.25 176.307 273.535 180.937 273.478 184.015C272.583 185.332 272.233 185.568 271.038 186.533C272.195 192.568 274.783 198.162 277.948 203.379C276.753 203.667 276.555 203.802 275.435 203.462C272.158 197.62 270.498 192.582 268.62 186.255L250.835 186.247C249.228 192.323 246.836 198.164 243.719 203.622C243.024 203.413 242.327 203.213 241.627 203.021C245.866 195.539 245.574 194.264 248.27 186.559Z" fill="#5C5755"/>
<path id="nose" d="M250.017 166.287C251.878 165.218 267.245 165.121 269.075 166.676C270.533 169.796 269.715 178.758 269.743 182.374C269.748 183.014 268.638 183.286 268.108 183.409C262.473 183.631 256.878 183.389 251.28 183.488C250.083 183.399 249.78 183.338 248.944 182.552C248.333 178.698 248.819 172.098 249.017 168.039C249.042 167.523 249.684 166.692 250.017 166.287Z" fill="#737373"/>
<path id="right_temple" d="M134.965 151.783C134.643 155.443 134.066 159.884 134.031 163.449C133.365 164.044 133.755 163.877 132.786 163.877C130.805 163.658 126.526 164.1 125.027 163.504C123.454 162.877 123.927 153.896 124.845 152.299C126.746 151.337 132.318 152.276 134.965 151.783Z" fill="#5C5755"/>
<path id="right_eyeglass" d="M154.934 201.689L154.383 201.398C146.598 189.815 142.968 180.758 142.534 166.485C141.545 133.934 165.214 104.61 198.961 104.532C212.448 104.49 225.388 109.863 234.88 119.446C244.952 129.553 250.72 144.648 250.66 158.854C250.29 159.406 250.209 159.253 249.337 159.461C240.011 161.464 244.075 174.076 242.509 180.194C237.59 199.412 222.606 216 203.336 220.155C190.751 222.841 177.615 220.351 166.886 213.246C163.51 211.03 160.176 208.181 157.439 205.18C156.678 204.346 155.559 202.313 154.934 201.689Z" fill="#F5EBD9"/>
<path id="right_eyebrow" d="M154.934 201.689L154.383 201.398C146.598 189.815 142.968 180.758 142.534 166.485C141.545 133.934 165.214 104.61 198.961 104.532C212.448 104.49 225.388 109.863 234.88 119.446C244.952 129.553 250.72 144.648 250.66 158.854C250.29 159.406 250.209 159.253 249.337 159.461C247.954 149.31 245.37 141.078 239.352 132.596C228.323 117.053 210.727 109.273 191.807 112.04C178.42 114.096 166.406 121.403 158.421 132.343C145.268 150.023 143.39 175.643 151.947 195.713C152.852 197.837 153.885 199.657 154.934 201.689Z" fill="#5C5755"/>
<path id="right_eye_orbit" d="M196.651 139.818C215.143 138.44 231.268 152.276 232.714 170.764C234.16 189.251 220.383 205.426 201.901 206.941C183.323 208.463 167.044 194.598 165.59 176.014C164.136 157.43 178.061 141.203 196.651 139.818Z" fill="#6E8C92"/>
<path id="right_eye_black" d="M198.26 146.701C212.181 145.976 224.04 156.704 224.707 170.628C225.375 184.551 214.598 196.365 200.672 196.976C186.826 197.582 175.096 186.882 174.432 173.039C173.768 159.196 184.421 147.422 198.26 146.701Z" fill="#090A09"/>
<path id="right_eye_white" d="M197.745 166.09C201.293 165.496 204.651 167.889 205.248 171.437C205.845 174.984 203.455 178.345 199.908 178.945C196.357 179.545 192.992 177.152 192.394 173.6C191.796 170.049 194.193 166.685 197.745 166.09Z" fill="#F5EBD9"/>
<path id="left_temple" d="M383.788 151.957C386.773 152.021 390.17 152.028 393.12 151.812C396.833 151.54 395.993 163.285 394.16 163.68C391.985 164.148 388.138 163.563 385.43 164.031C384.79 163.05 384.178 154.242 383.788 151.957Z" fill="#5C5755"/>
<path id="left_eyeglass" d="M270.5 159.829C270.218 159.787 269.143 159.73 269.128 159.457C268.013 139.328 281.24 119.005 297.543 110.595C309.753 104.367 323.93 103.222 336.983 107.41C356.918 113.866 370.53 131.287 374.913 151.366C375.36 153.416 375.805 157.864 376.408 159.462C376.48 160.349 376.585 161.325 376.563 162.204C376.528 166.852 376.498 171.226 375.758 175.994C374.188 186.13 369.988 196.709 363.08 204.414C362.875 204.644 362.598 204.816 362.35 204.983C361.863 205.263 359.69 208.309 359.038 208.934C354.643 213.139 350.168 216.109 344.608 218.366C332.693 223.148 320.085 223.28 308.058 218.197C292.015 211.418 279.89 195.469 276.268 178.494C275.385 174.358 276.93 168.869 275.095 164.694C274.153 162.546 272.68 160.673 270.5 159.829Z" fill="#F5EBD9"/>
<path id="left_eyebrow" d="M270.5 159.829C270.218 159.787 269.143 159.73 269.128 159.457C268.013 139.328 281.24 119.005 297.543 110.595C309.753 104.367 323.93 103.222 336.983 107.41C356.918 113.866 370.53 131.287 374.913 151.366C375.36 153.416 375.805 157.864 376.408 159.462C376.48 160.349 376.585 161.325 376.563 162.204C376.528 166.852 376.498 171.226 375.758 175.994C374.188 186.13 369.988 196.709 363.08 204.414C362.875 204.644 362.598 204.816 362.35 204.983C367.078 197.48 370.21 189.084 371.553 180.319C376.14 150.1 359.848 117.168 327.535 112.482C314.793 110.607 301.83 113.896 291.523 121.619C278.45 131.418 272.803 144.148 270.5 159.829Z" fill="#5C5755"/>
<path id="left_eye_orbit" d="M314.98 140.436C333.56 138.543 350.128 152.133 351.908 170.722C353.688 189.312 339.998 205.798 321.398 207.464C302.958 209.116 286.643 195.569 284.88 177.139C283.115 158.709 296.563 142.313 314.98 140.436Z" fill="#6E8C92"/>
<path id="left_eye_black" d="M307.06 149.808C308.083 148.474 313.285 147.308 315.03 147.085C321.605 146.234 328.248 148.061 333.463 152.155C338.698 156.273 342.075 162.305 342.853 168.918C343.69 175.781 341.755 182.693 337.475 188.122C333.4 193.239 327.205 196.747 320.685 197.426C314.063 198.147 307.425 196.201 302.24 192.018C297.01 187.77 293.68 181.618 292.988 174.915C292.328 168.042 294.17 161.188 298.75 155.952C299.74 154.823 302.108 152.092 303.623 152.032C304.498 150.939 305.705 150.159 307.06 149.808Z" fill="#090A09"/>
<path id="left_eye_white" d="M317.164 166.207C320.244 165.411 323.447 166.966 324.724 169.879C326.004 172.792 324.979 176.201 322.309 177.929C319.639 179.657 316.109 179.192 313.977 176.832C311.844 174.472 311.737 170.914 313.727 168.431C314.602 167.338 315.809 166.558 317.164 166.207Z" fill="#F5EBD9"/>
</g>
</g>
</svg>
